# xmcd
#
# Track frame offsets: 
#        150
#        14975
#        28240
#        50115
#        67010
#        85198
#        101710
#        119628
#        135413
#        151630
#        167875
#
# Disc length: 2445 seconds
#
# Revision: 1
# Processed by: cddbd v1.5.2PL0 Copyright (c) Steve Scherf et al.
# Submitted via: ExactAudioCopy v1.0b3
#
DISCID=9c098b0b
DTITLE=Sue Foley, Deborah Coleman, Roxanne Potvin - Time Bomb
DYEAR=2007
DGENRE=Blues
TTITLE0=Time Bomb
TTITLE1=Hitting On Nothing
TTITLE2=So Far
TTITLE3=Talking Loud
TTITLE4=Strong Enough To Hold You
TTITLE5=Show Me
TTITLE6=Motor City
TTITLE7=Get Up
TTITLE8=Two Moons Gone
TTITLE9=Don't Start The Car
TTITLE10=In The Basement
EXTD=
EXTT0=
EXTT1=
EXTT2=
EXTT3=
EXTT4=
EXTT5=
EXTT6=
EXTT7=
EXTT8=
EXTT9=
EXTT10=
PLAYORDER=
